<svg fill="none" height="61" viewBox="0 0 47 61" width="47" xmlns="http://www.w3.org/2000/svg" xmlns:xlink="http://www.w3.org/1999/xlink"><linearGradient id="a" gradientUnits="userSpaceOnUse" x1="-0" x2="47.0002" y1="33.7812" y2="33.7619"><stop offset="0" stop-color="#017cee"/><stop offset=".489583" stop-color="#5749e8"/><stop offset=".984375" stop-color="#832fd7"/></linearGradient><path clip-rule="evenodd" d="m29.6409.512122c-8.182.262644-15.7694 3.658828-21.36843 9.564278-11.55572 12.1907-10.92838 31.4062 1.40181 42.8332 4.32392 4.0083 9.52452 6.5277 14.94992 7.5904l1.6266-4.0205c-4.9472-.8182-9.7126-3.0305-13.638-6.6691-10.59942-9.8249-11.14094-26.3452-1.2057-36.8267 4.8124-5.07714 11.3371-7.99855 18.3727-8.22281.2922-.0101.5824-.01414.8746-.01414 5.3048 0 10.3889 1.55566 14.717 4.45889l1.6286-4.02654c-4.8634-3.05071-10.487-4.6791-16.3435-4.6791-.3372 0-.6764.006061-1.0156.016163zm3.2204 15.338378h-4.2646l-.0511.1253-10.8589 26.6705-.1124.2747h4.8246l.051-.1272 2.6647-6.7298h11.709l2.6974 6.7318.051.1273h4.9779l-.1124-.2748-7.0111-17.2214-.0511-.1252h-4.8246l.1083.2727 2.4869 6.2792h-8.3209l6.2284-15.7283.1083-.2728h-.2983z" fill="url(#a)" fill-rule="evenodd"/></svg>